<?xml version="1.0" standalone="no"?>
<!DOCTYPE svg PUBLIC "-//W3C//DTD SVG 20010904//EN"
 "http://www.w3.org/TR/2001/REC-SVG-20010904/DTD/svg10.dtd">
<svg version="1.0" xmlns="http://www.w3.org/2000/svg"
 width="512.000000pt" height="512.000000pt" viewBox="0 0 512.000000 512.000000"
 preserveAspectRatio="xMidYMid meet">
<metadata>
Created by potrace 1.14, written by Peter Selinger 2001-2017
</metadata>
<g transform="translate(0.000000,512.000000) scale(0.100000,-0.100000)"
fill="#000000" stroke="none">
<path d="M2010 5053 c15 -32 53 -114 85 -183 32 -69 78 -168 102 -220 25 -52
71 -152 103 -221 32 -69 72 -153 89 -187 27 -54 29 -62 14 -63 -10 0 -36 -2
-58 -4 -22 -2 -87 -6 -145 -10 -58 -3 -130 -7 -160 -10 -30 -2 -100 -6 -155
-10 -55 -3 -125 -8 -155 -10 -150 -10 -279 -18 -317 -19 -23 -1 -44 -3 -46 -6
-3 -3 58 -49 136 -102 266 -181 352 -241 361 -248 4 -5 -14 -19 -40 -32 -54
-26 -171 -85 -194 -98 -8 -5 -73 -39 -145 -76 -71 -37 -193 -99 -270 -139 -77
-40 -225 -116 -330 -170 -250 -129 -251 -129 -314 -193 -54 -55 -108 -153
-118 -213 -2 -18 -9 -43 -14 -56 -12 -32 -11 -36 4 -27 9 6 9 4 1 -7 -10 -14
-11 -52 -1 -79 3 -8 10 -37 17 -65 15 -65 58 -140 113 -196 25 -25 132 -101
238 -169 107 -68 237 -151 289 -185 52 -34 178 -115 280 -180 102 -65 221
-142 265 -170 44 -29 208 -134 365 -235 351 -225 375 -241 475 -305 44 -29
145 -94 225 -145 80 -51 169 -108 198 -126 28 -19 76 -49 105 -68 28 -18 111
-71 182 -117 285 -185 385 -245 437 -263 70 -23 163 -27 243 -11 39 8 71 15
72 15 1 0 8 -6 15 -12 7 -7 69 -58 138 -114 69 -55 187 -151 263 -212 l139
-112 59 0 59 0 -22 43 c-13 23 -28 49 -35 57 -7 8 -35 47 -62 85 -28 39 -54
75 -58 80 -5 6 -29 39 -53 75 -25 35 -51 71 -57 80 -7 8 -46 62 -87 120 l-74
105 23 45 c40 79 42 98 60 495 3 78 13 293 20 430 3 50 7 144 10 210 3 66 8
161 10 210 8 143 16 311 20 425 2 58 7 148 9 200 3 52 8 147 11 210 5 121 12
272 20 430 3 52 8 151 11 220 3 69 7 157 9 195 2 39 6 133 10 210 3 77 8 172
11 210 9 148 4 239 -17 304 -29 88 -72 151 -156 223 -68 58 -186 100 -283 99
-125 -1 -118 2 -750 -328 -85 -44 -201 -104 -257 -132 l-102 -52 -168 171
c-92 95 -220 225 -283 290 -270 276 -393 400 -395 400 -2 0 9 -26 25 -57z"/>
</g>
</svg>
