<svg width="22" height="22" viewBox="0 0 22 22" fill="none" xmlns="http://www.w3.org/2000/svg">
<g clip-path="url(#clip0)">
<path d="M11 2.74988C15.9166 2.74988 20.3223 5.97594 21.9632 10.7778C22.0123 10.9221 22.0123 11.0779 21.9632 11.2222C20.3223 16.0241 15.9166 19.2502 11 19.2502C6.08332 19.2502 1.67762 16.0241 0.036726 11.2222C-0.0122948 11.0779 -0.0122948 10.9221 0.036726 10.7778C1.67766 5.97594 6.08336 2.74988 11 2.74988ZM11 17.8751C15.2526 17.8751 19.0749 15.1217 20.5835 11C19.0749 6.8783 15.2526 4.12492 11 4.12492C6.74737 4.12492 2.92508 6.8783 1.41643 11C2.92508 15.1217 6.74737 17.8751 11 17.8751Z" fill="#707070"/>
<path d="M11 6.87494C13.2747 6.87494 15.1251 8.72533 15.1251 11C15.1251 13.2747 13.2747 15.1251 11 15.1251C8.72536 15.1251 6.87497 13.2747 6.87497 11C6.87497 8.72529 8.72536 6.87494 11 6.87494ZM11 13.7501C12.5168 13.7501 13.7501 12.5167 13.7501 11C13.7501 9.48331 12.5167 8.24998 11 8.24998C9.48333 8.24998 8.25001 9.48335 8.25001 11C8.25001 12.5167 9.48337 13.7501 11 13.7501Z" fill="#707070"/>
</g>
<defs>
<clipPath id="clip0">
<rect width="22" height="22" fill="white" transform="matrix(-1 0 0 1 22 0)"/>
</clipPath>
</defs>
</svg>
