<svg width="17" height="17" viewBox="0 0 17 17" fill="none" xmlns="http://www.w3.org/2000/svg">
<path d="M13.1604 10.585C12.1691 10.585 11.2817 11.0373 10.6929 11.7461L6.86262 9.5714C6.98173 9.23622 7.04719 8.87581 7.04719 8.50022C7.04719 8.12471 6.98173 7.76431 6.86262 7.42912L10.6926 5.25392C11.2813 5.96297 12.1689 6.41533 13.1603 6.41533C14.9285 6.41533 16.3671 4.97619 16.3671 3.20718C16.3673 1.43869 14.9287 0 13.1604 0C11.3919 0 9.95315 1.43869 9.95315 3.2071C9.95315 3.58269 10.0185 3.94317 10.1377 4.27843L6.30754 6.45371C5.71879 5.74503 4.83144 5.29297 3.84039 5.29297C2.07168 5.29297 0.63269 6.73166 0.63269 8.50015C0.63269 10.2686 2.07168 11.7073 3.84039 11.7073C4.83144 11.7073 5.71871 11.2552 6.30746 10.5466L10.1377 12.7213C10.0185 13.0566 9.95308 13.4172 9.95308 13.7928C9.95308 15.5612 11.3918 16.9999 13.1603 16.9999C14.9286 16.9999 16.3672 15.5612 16.3672 13.7928C16.3673 12.0241 14.9287 10.585 13.1604 10.585ZM13.1604 1.12228C14.3098 1.12228 15.245 2.05751 15.245 3.2071C15.245 4.35729 14.3098 5.29297 13.1604 5.29297C12.0107 5.29297 11.0754 4.35729 11.0754 3.2071C11.0754 2.05751 12.0107 1.12228 13.1604 1.12228ZM3.84047 10.585C2.69058 10.585 1.75505 9.64974 1.75505 8.50022C1.75505 7.35056 2.69058 6.41533 3.84047 6.41533C4.9899 6.41533 5.92499 7.35056 5.92499 8.50022C5.92499 9.64974 4.98983 10.585 3.84047 10.585ZM13.1604 15.8777C12.0107 15.8777 11.0754 14.9424 11.0754 13.7929C11.0754 12.6429 12.0107 11.7073 13.1604 11.7073C14.3098 11.7073 15.245 12.6429 15.245 13.7929C15.245 14.9424 14.3098 15.8777 13.1604 15.8777Z" fill="#3A3A3A"/>
</svg>
